<svg width="21" height="32" viewBox="0 0 21 32" fill="none" xmlns="http://www.w3.org/2000/svg">
<path d="M2.672 10.952H8.736V11.672H2.672V10.952ZM2.768 16.264H9.68V17H1.952V5.8H9.44V6.536H2.768V16.264Z" fill="white"/>
<path d="M7.88 25V11H13.64C14.88 11 15.94 11.2 16.82 11.6C17.7133 12 18.4 12.5733 18.88 13.32C19.36 14.0667 19.6 14.9533 19.6 15.98C19.6 17.0067 19.36 17.8933 18.88 18.64C18.4 19.3867 17.7133 19.96 16.82 20.36C15.94 20.76 14.88 20.96 13.64 20.96H9.32L10.48 19.74V25H7.88ZM10.48 20.02L9.32 18.76H13.52C14.6667 18.76 15.5267 18.52 16.1 18.04C16.6867 17.5467 16.98 16.86 16.98 15.98C16.98 15.0867 16.6867 14.4 16.1 13.92C15.5267 13.44 14.6667 13.2 13.52 13.2H9.32L10.48 11.92V20.02Z" fill="#F7DD43"/>
</svg>
