<svg width="120" height="58" viewBox="0 0 120 58" fill="none" xmlns="http://www.w3.org/2000/svg">
<path d="M10.672 18.952H16.736V19.672H10.672V18.952ZM10.768 24.264H17.68V25H9.952V13.8H17.44V14.536H10.768V24.264ZM22.308 25L18.548 16.648H19.396L22.916 24.552H22.532L26.084 16.648H26.9L23.124 25H22.308ZM31.8068 25.064C30.9641 25.064 30.2174 24.8827 29.5668 24.52C28.9268 24.1573 28.4201 23.656 28.0468 23.016C27.6841 22.376 27.5028 21.6453 27.5028 20.824C27.5028 19.992 27.6734 19.2613 28.0148 18.632C28.3668 17.992 28.8468 17.4907 29.4548 17.128C30.0628 16.7653 30.7454 16.584 31.5028 16.584C32.2601 16.584 32.9374 16.76 33.5348 17.112C34.1428 17.464 34.6174 17.96 34.9588 18.6C35.3108 19.2293 35.4868 19.96 35.4868 20.792C35.4868 20.824 35.4814 20.8613 35.4708 20.904C35.4708 20.936 35.4708 20.9733 35.4708 21.016H28.0948V20.392H35.0388L34.7188 20.696C34.7294 20.0453 34.5908 19.464 34.3028 18.952C34.0254 18.4293 33.6468 18.024 33.1668 17.736C32.6868 17.4373 32.1321 17.288 31.5028 17.288C30.8841 17.288 30.3294 17.4373 29.8388 17.736C29.3588 18.024 28.9801 18.4293 28.7028 18.952C28.4254 19.464 28.2868 20.0507 28.2868 20.712V20.856C28.2868 21.5387 28.4361 22.1467 28.7348 22.68C29.0441 23.2027 29.4654 23.6133 29.9988 23.912C30.5321 24.2 31.1401 24.344 31.8228 24.344C32.3561 24.344 32.8521 24.248 33.3108 24.056C33.7801 23.864 34.1748 23.5707 34.4948 23.176L34.9588 23.704C34.5961 24.152 34.1374 24.4933 33.5828 24.728C33.0388 24.952 32.4468 25.064 31.8068 25.064ZM42.0416 16.584C42.7243 16.584 43.3163 16.7173 43.8176 16.984C44.3296 17.24 44.7243 17.6347 45.0016 18.168C45.2896 18.6907 45.4336 19.3413 45.4336 20.12V25H44.6336V20.184C44.6336 19.2453 44.3936 18.5307 43.9136 18.04C43.4443 17.5493 42.783 17.304 41.9296 17.304C41.279 17.304 40.7136 17.4373 40.2336 17.704C39.7536 17.9707 39.3856 18.344 39.1296 18.824C38.8843 19.304 38.7616 19.88 38.7616 20.552V25H37.9616V16.648H38.7296V18.968L38.6176 18.712C38.8736 18.0507 39.295 17.5333 39.8816 17.16C40.4683 16.776 41.1883 16.584 42.0416 16.584ZM51.1593 25.064C50.4233 25.064 49.8579 24.8613 49.4633 24.456C49.0793 24.0507 48.8873 23.496 48.8873 22.792V14.824H49.6873V22.712C49.6873 23.2453 49.8206 23.656 50.0873 23.944C50.3539 24.232 50.7379 24.376 51.2393 24.376C51.7619 24.376 52.1939 24.2213 52.5353 23.912L52.8713 24.472C52.6579 24.6747 52.3966 24.824 52.0873 24.92C51.7886 25.016 51.4793 25.064 51.1593 25.064ZM47.3513 17.336V16.648H52.3433V17.336H47.3513ZM58.0694 25.064C57.2694 25.064 56.5547 24.8827 55.9254 24.52C55.3067 24.1573 54.8107 23.656 54.4374 23.016C54.0747 22.376 53.8934 21.6453 53.8934 20.824C53.8934 19.992 54.0747 19.2613 54.4374 18.632C54.8107 17.992 55.3067 17.4907 55.9254 17.128C56.5547 16.7653 57.2694 16.584 58.0694 16.584C58.8694 16.584 59.584 16.7653 60.2134 17.128C60.8427 17.4907 61.3387 17.992 61.7014 18.632C62.064 19.2613 62.2454 19.992 62.2454 20.824C62.2454 21.6453 62.064 22.376 61.7014 23.016C61.3387 23.656 60.8427 24.1573 60.2134 24.52C59.584 24.8827 58.8694 25.064 58.0694 25.064ZM58.0694 24.344C58.7094 24.344 59.2854 24.2 59.7974 23.912C60.3094 23.6133 60.7094 23.1973 60.9974 22.664C61.2854 22.1307 61.4294 21.5173 61.4294 20.824C61.4294 20.12 61.2854 19.5067 60.9974 18.984C60.7094 18.4507 60.3094 18.04 59.7974 17.752C59.2854 17.4533 58.7094 17.304 58.0694 17.304C57.4294 17.304 56.8534 17.4533 56.3414 17.752C55.84 18.04 55.44 18.4507 55.1414 18.984C54.8534 19.5067 54.7094 20.12 54.7094 20.824C54.7094 21.5173 54.8534 22.1307 55.1414 22.664C55.44 23.1973 55.84 23.6133 56.3414 23.912C56.8534 24.2 57.4294 24.344 58.0694 24.344Z" fill="white"/>
<path d="M9.88 43V29H15.64C16.88 29 17.94 29.2 18.82 29.6C19.7133 30 20.4 30.5733 20.88 31.32C21.36 32.0667 21.6 32.9533 21.6 33.98C21.6 35.0067 21.36 35.8933 20.88 36.64C20.4 37.3867 19.7133 37.96 18.82 38.36C17.94 38.76 16.88 38.96 15.64 38.96H11.32L12.48 37.74V43H9.88ZM12.48 38.02L11.32 36.76H15.52C16.6667 36.76 17.5267 36.52 18.1 36.04C18.6867 35.5467 18.98 34.86 18.98 33.98C18.98 33.0867 18.6867 32.4 18.1 31.92C17.5267 31.44 16.6667 31.2 15.52 31.2H11.32L12.48 29.92V38.02ZM24.1517 43V28.16H26.6517V43H24.1517ZM36.513 43V40.84L36.373 40.38V36.6C36.373 35.8667 36.153 35.3 35.713 34.9C35.273 34.4867 34.6063 34.28 33.713 34.28C33.113 34.28 32.5196 34.3733 31.933 34.56C31.3596 34.7467 30.873 35.0067 30.473 35.34L29.493 33.52C30.0663 33.08 30.7463 32.7533 31.533 32.54C32.333 32.3133 33.1596 32.2 34.013 32.2C35.5596 32.2 36.753 32.5733 37.593 33.32C38.4463 34.0533 38.873 35.1933 38.873 36.74V43H36.513ZM33.153 43.14C32.353 43.14 31.653 43.0067 31.053 42.74C30.453 42.46 29.9863 42.08 29.653 41.6C29.333 41.1067 29.173 40.5533 29.173 39.94C29.173 39.34 29.313 38.8 29.593 38.32C29.8863 37.84 30.3596 37.46 31.013 37.18C31.6663 36.9 32.533 36.76 33.613 36.76H36.713V38.42H33.793C32.9396 38.42 32.3663 38.56 32.073 38.84C31.7796 39.1067 31.633 39.44 31.633 39.84C31.633 40.2933 31.813 40.6533 32.173 40.92C32.533 41.1867 33.033 41.32 33.673 41.32C34.2863 41.32 34.833 41.18 35.313 40.9C35.8063 40.62 36.1596 40.2067 36.373 39.66L36.793 41.16C36.553 41.7867 36.1196 42.2733 35.493 42.62C34.8796 42.9667 34.0996 43.14 33.153 43.14ZM48.1414 32.2C48.9947 32.2 49.7547 32.3667 50.4214 32.7C51.1014 33.0333 51.6347 33.5467 52.0214 34.24C52.4081 34.92 52.6014 35.8 52.6014 36.88V43H50.1014V37.2C50.1014 36.2533 49.8747 35.5467 49.4214 35.08C48.9814 34.6133 48.3614 34.38 47.5614 34.38C46.9747 34.38 46.4547 34.5 46.0014 34.74C45.5481 34.98 45.1947 35.34 44.9414 35.82C44.7014 36.2867 44.5814 36.88 44.5814 37.6V43H42.0814V32.32H44.4614V35.2L44.0414 34.32C44.4147 33.64 44.9547 33.12 45.6614 32.76C46.3814 32.3867 47.2081 32.2 48.1414 32.2ZM60.8123 43.14C59.6257 43.14 58.5857 42.9067 57.6923 42.44C56.8123 41.96 56.1257 41.3067 55.6323 40.48C55.1523 39.6533 54.9123 38.7133 54.9123 37.66C54.9123 36.5933 55.1457 35.6533 55.6123 34.84C56.0923 34.0133 56.7457 33.3667 57.5723 32.9C58.4123 32.4333 59.3657 32.2 60.4323 32.2C61.4723 32.2 62.399 32.4267 63.2123 32.88C64.0257 33.3333 64.6657 33.9733 65.1323 34.8C65.599 35.6267 65.8323 36.6 65.8323 37.72C65.8323 37.8267 65.8257 37.9467 65.8123 38.08C65.8123 38.2133 65.8057 38.34 65.7923 38.46H56.8923V36.8H64.4723L63.4923 37.32C63.5057 36.7067 63.379 36.1667 63.1123 35.7C62.8457 35.2333 62.479 34.8667 62.0123 34.6C61.559 34.3333 61.0323 34.2 60.4323 34.2C59.819 34.2 59.279 34.3333 58.8123 34.6C58.359 34.8667 57.999 35.24 57.7323 35.72C57.479 36.1867 57.3523 36.74 57.3523 37.38V37.78C57.3523 38.42 57.499 38.9867 57.7923 39.48C58.0857 39.9733 58.499 40.3533 59.0323 40.62C59.5657 40.8867 60.179 41.02 60.8723 41.02C61.4723 41.02 62.0123 40.9267 62.4923 40.74C62.9723 40.5533 63.399 40.26 63.7723 39.86L65.1123 41.4C64.6323 41.96 64.0257 42.3933 63.2923 42.7C62.5723 42.9933 61.7457 43.14 60.8123 43.14ZM67.1338 47.02C66.6671 47.02 66.2271 46.9667 65.8137 46.86C65.3871 46.7667 65.0271 46.6133 64.7337 46.4L65.4537 44.54C65.8404 44.82 66.3271 44.96 66.9138 44.96C67.3671 44.96 67.7204 44.8133 67.9738 44.52C68.2271 44.24 68.3538 43.82 68.3538 43.26V32.32H70.8538V43.2C70.8538 44.3733 70.5271 45.3 69.8738 45.98C69.2338 46.6733 68.3204 47.02 67.1338 47.02ZM69.5938 30.56C69.1271 30.56 68.7404 30.4133 68.4338 30.12C68.1404 29.8267 67.9938 29.4733 67.9938 29.06C67.9938 28.6333 68.1404 28.28 68.4338 28C68.7404 27.7067 69.1271 27.56 69.5938 27.56C70.0604 27.56 70.4404 27.7 70.7338 27.98C71.0404 28.2467 71.1938 28.5867 71.1938 29C71.1938 29.44 71.0471 29.8133 70.7538 30.12C70.4604 30.4133 70.0738 30.56 69.5938 30.56ZM80.7122 43V40.84L80.5722 40.38V36.6C80.5722 35.8667 80.3522 35.3 79.9122 34.9C79.4722 34.4867 78.8055 34.28 77.9122 34.28C77.3122 34.28 76.7189 34.3733 76.1322 34.56C75.5589 34.7467 75.0722 35.0067 74.6722 35.34L73.6922 33.52C74.2655 33.08 74.9455 32.7533 75.7322 32.54C76.5322 32.3133 77.3589 32.2 78.2122 32.2C79.7589 32.2 80.9522 32.5733 81.7922 33.32C82.6455 34.0533 83.0722 35.1933 83.0722 36.74V43H80.7122ZM77.3522 43.14C76.5522 43.14 75.8522 43.0067 75.2522 42.74C74.6522 42.46 74.1855 42.08 73.8522 41.6C73.5322 41.1067 73.3722 40.5533 73.3722 39.94C73.3722 39.34 73.5122 38.8 73.7922 38.32C74.0855 37.84 74.5589 37.46 75.2122 37.18C75.8655 36.9 76.7322 36.76 77.8122 36.76H80.9122V38.42H77.9922C77.1389 38.42 76.5655 38.56 76.2722 38.84C75.9789 39.1067 75.8322 39.44 75.8322 39.84C75.8322 40.2933 76.0122 40.6533 76.3722 40.92C76.7322 41.1867 77.2322 41.32 77.8722 41.32C78.4855 41.32 79.0322 41.18 79.5122 40.9C80.0055 40.62 80.3589 40.2067 80.5722 39.66L80.9922 41.16C80.7522 41.7867 80.3189 42.2733 79.6922 42.62C79.0789 42.9667 78.2989 43.14 77.3522 43.14ZM90.8202 43.14C89.7935 43.14 88.8668 42.9133 88.0402 42.46C87.2268 41.9933 86.5868 41.3533 86.1202 40.54C85.6535 39.7267 85.4202 38.7667 85.4202 37.66C85.4202 36.5533 85.6535 35.5933 86.1202 34.78C86.5868 33.9667 87.2268 33.3333 88.0402 32.88C88.8668 32.4267 89.7935 32.2 90.8202 32.2C91.7135 32.2 92.5135 32.4 93.2202 32.8C93.9268 33.1867 94.4868 33.78 94.9002 34.58C95.3135 35.38 95.5202 36.4067 95.5202 37.66C95.5202 38.9 95.3202 39.9267 94.9202 40.74C94.5202 41.54 93.9668 42.14 93.2602 42.54C92.5535 42.94 91.7402 43.14 90.8202 43.14ZM91.1202 41C91.7202 41 92.2535 40.8667 92.7202 40.6C93.2002 40.3333 93.5802 39.9467 93.8602 39.44C94.1535 38.9333 94.3002 38.34 94.3002 37.66C94.3002 36.9667 94.1535 36.3733 93.8602 35.88C93.5802 35.3733 93.2002 34.9867 92.7202 34.72C92.2535 34.4533 91.7202 34.32 91.1202 34.32C90.5202 34.32 89.9802 34.4533 89.5002 34.72C89.0335 34.9867 88.6535 35.3733 88.3602 35.88C88.0802 36.3733 87.9402 36.9667 87.9402 37.66C87.9402 38.34 88.0802 38.9333 88.3602 39.44C88.6535 39.9467 89.0335 40.3333 89.5002 40.6C89.9802 40.8667 90.5202 41 91.1202 41ZM94.3602 43V40.48L94.4602 37.64L94.2602 34.8V28.16H96.7402V43H94.3602ZM104.831 43.14C103.737 43.14 102.764 42.9067 101.911 42.44C101.057 41.96 100.384 41.3067 99.8906 40.48C99.3973 39.6533 99.1506 38.7133 99.1506 37.66C99.1506 36.5933 99.3973 35.6533 99.8906 34.84C100.384 34.0133 101.057 33.3667 101.911 32.9C102.764 32.4333 103.737 32.2 104.831 32.2C105.937 32.2 106.917 32.4333 107.771 32.9C108.637 33.3667 109.311 34.0067 109.791 34.82C110.284 35.6333 110.531 36.58 110.531 37.66C110.531 38.7133 110.284 39.6533 109.791 40.48C109.311 41.3067 108.637 41.96 107.771 42.44C106.917 42.9067 105.937 43.14 104.831 43.14ZM104.831 41C105.444 41 105.991 40.8667 106.471 40.6C106.951 40.3333 107.324 39.9467 107.591 39.44C107.871 38.9333 108.011 38.34 108.011 37.66C108.011 36.9667 107.871 36.3733 107.591 35.88C107.324 35.3733 106.951 34.9867 106.471 34.72C105.991 34.4533 105.451 34.32 104.851 34.32C104.237 34.32 103.691 34.4533 103.211 34.72C102.744 34.9867 102.371 35.3733 102.091 35.88C101.811 36.3733 101.671 36.9667 101.671 37.66C101.671 38.34 101.811 38.9333 102.091 39.44C102.371 39.9467 102.744 40.3333 103.211 40.6C103.691 40.8667 104.231 41 104.831 41Z" fill="#F7DD43"/>
</svg>
